<svg width="162" height="50" viewBox="0 0 162 50" fill="none" xmlns="http://www.w3.org/2000/svg">
<path d="M46.4617 9.95415L33.0453 0.945133C33.0246 0.945133 33.0246 0.923581 33.004 0.923581L32.9833 0.902028C32.9833 0.902028 32.9627 0.902028 32.9627 0.880475C32.9421 0.858923 32.9214 0.858922 32.9008 0.83737C32.8801 0.83737 32.8595 0.815817 32.8389 0.815817C32.8182 0.815817 32.7976 0.794265 32.7769 0.794265C32.7563 0.794265 32.7357 0.772712 32.715 0.772712C32.6944 0.772712 32.6737 0.772712 32.6531 0.75116C32.6324 0.75116 32.6118 0.75116 32.5912 0.75116C32.5705 0.75116 32.5499 0.75116 32.5292 0.75116C32.5086 0.75116 32.488 0.75116 32.4673 0.75116C32.4467 0.75116 32.426 0.75116 32.4054 0.75116C32.3848 0.75116 32.3641 0.751159 32.3435 0.772712C32.3228 0.772712 32.3022 0.772712 32.2816 0.794265C32.2609 0.794265 32.2403 0.815817 32.2196 0.815817C32.199 0.815817 32.1784 0.83737 32.1577 0.83737C32.1371 0.83737 32.1164 0.858923 32.0958 0.880475C32.0958 0.880475 32.0751 0.880476 32.0751 0.902028L32.0545 0.923581C32.0339 0.923581 32.0339 0.945133 32.0132 0.945133L18.5968 9.95415C18.2872 10.1481 18.1221 10.493 18.1221 10.8809V26.2049V39.5675C18.1221 39.9339 18.3078 40.2787 18.5968 40.4943L32.0132 49.5033C32.0339 49.5033 32.0339 49.5248 32.0545 49.5248C32.0751 49.5248 32.0752 49.5464 32.0958 49.5464C32.1164 49.5464 32.1164 49.5679 32.1371 49.5679C32.1577 49.5679 32.1784 49.5895 32.199 49.5895C32.2196 49.611 32.2403 49.611 32.2816 49.611C32.3022 49.611 32.3228 49.6326 32.3435 49.6326C32.3641 49.6326 32.4054 49.6542 32.426 49.6542C32.4467 49.6542 32.4673 49.6542 32.4673 49.6542C32.5086 49.6542 32.5499 49.6542 32.6118 49.6542C32.6737 49.6542 32.6944 49.6542 32.7563 49.6542C32.7769 49.6542 32.7976 49.6542 32.7976 49.6542C32.8182 49.6542 32.8595 49.6326 32.8801 49.6326C32.9008 49.6326 32.9214 49.611 32.9421 49.611C32.9627 49.611 33.004 49.5895 33.0246 49.5895C33.0453 49.5895 33.0659 49.5679 33.0865 49.5679C33.1072 49.5679 33.1072 49.5464 33.1278 49.5464C33.1485 49.5464 33.1485 49.5248 33.1691 49.5248C33.1897 49.5248 33.1897 49.5033 33.2104 49.5033L46.6268 40.4943C46.9364 40.3003 47.1015 39.9555 47.1015 39.5675V26.2049V10.8809C46.9364 10.493 46.7507 10.1481 46.4617 9.95415ZM44.8517 25.2134L33.5406 26.485V3.87629L44.8517 11.4844V25.2134ZM31.4353 3.87629V26.485L20.1242 25.2134V11.4628L31.4353 3.87629ZM20.1242 27.4118L31.4353 28.6834V46.5721L20.1242 38.964V27.4118ZM33.52 46.5721V28.6834L44.8311 27.4118V38.964L33.52 46.5721Z" fill="#7477BB"/>
<path d="M16.6361 11.5921C16.3059 11.3982 15.893 11.4197 15.5628 11.6352L7.03821 17.3898C6.74924 17.5838 6.56348 17.9286 6.56348 18.3166V32.1103C6.56348 32.4767 6.74924 32.8215 7.03821 33.037L15.5628 38.7916C15.7279 38.8994 15.9343 38.964 16.1407 38.964C16.3059 38.964 16.4916 38.9209 16.6361 38.8347C16.9664 38.6407 17.1728 38.2743 17.1728 37.8648V12.562C17.1934 12.1525 16.987 11.7861 16.6361 11.5921ZM15.1087 35.8604L8.66882 31.5068V18.92L15.1087 14.5664V35.8604Z" fill="#7477BB"/>
<path d="M5.1808 18.877C4.85055 18.683 4.43774 18.7045 4.10749 18.9201L0.474735 21.3771C0.185766 21.571 0 21.9159 0 22.3038V28.1662C0 28.5325 0.185766 28.8774 0.474735 29.0929L4.10749 31.5499C4.27261 31.6577 4.47902 31.7223 4.68543 31.7223C4.85055 31.7223 5.03632 31.6792 5.1808 31.593C5.51105 31.3991 5.71746 31.0327 5.71746 30.6232V19.8684C5.7381 19.4373 5.53169 19.0709 5.1808 18.877ZM3.65339 28.5757L2.12599 27.5411V22.8642L3.65339 21.8297V28.5757Z" fill="#7477BB"/>
<path d="M57.9178 17.4114L49.3932 11.6569C49.0629 11.4413 48.6708 11.4198 48.3199 11.6138C47.9896 11.8077 47.7832 12.1741 47.7832 12.5836V37.8865C47.7832 38.296 47.9896 38.6624 48.3199 38.8563C48.485 38.9425 48.6501 38.9857 48.8152 38.9857C49.0216 38.9857 49.2074 38.921 49.3932 38.8132L57.9178 33.0587C58.2067 32.8647 58.3925 32.5199 58.3925 32.1319V18.3382C58.3925 17.9503 58.2067 17.6054 57.9178 17.4114ZM56.3078 31.5069L49.8679 35.8605V14.5665L56.3078 18.9201V31.5069Z" fill="#7477BB"/>
<path d="M64.4605 21.3771L60.8277 18.9201C60.4975 18.7045 60.1053 18.683 59.7544 18.877C59.4242 19.0709 59.2178 19.4373 59.2178 19.8468V30.6016C59.2178 31.0111 59.4242 31.3775 59.7544 31.5715C59.9196 31.6577 60.0847 31.7008 60.2498 31.7008C60.4562 31.7008 60.642 31.6361 60.8277 31.5284L64.4605 29.0714C64.7495 28.8774 64.9352 28.5325 64.9352 28.1446V22.2823C64.9559 21.9159 64.7701 21.571 64.4605 21.3771ZM62.8505 27.5411L61.3231 28.5756V21.8297L62.8505 22.8642V27.5411Z" fill="#7477BB"/>
<path d="M26.3894 15.2776C27.1996 15.1403 27.7498 14.3432 27.6183 13.4972C27.4868 12.6512 26.7234 12.0767 25.9132 12.214C25.1031 12.3513 24.5529 13.1484 24.6844 13.9944C24.8159 14.8404 25.5792 15.4149 26.3894 15.2776Z" fill="#7477BB"/>
<path d="M27.2004 21.304C27.7807 20.698 27.7807 19.7155 27.2004 19.1095C26.62 18.5035 25.6791 18.5035 25.0987 19.1095C24.5183 19.7155 24.5183 20.698 25.0987 21.304C25.6791 21.91 26.62 21.91 27.2004 21.304Z" fill="#7477BB"/>
<path d="M40.1888 14.3441C40.5029 13.5523 40.1428 12.6445 39.3845 12.3165C38.6262 11.9885 37.7569 12.3645 37.4428 13.1564C37.1287 13.9482 37.4888 14.8559 38.2471 15.1839C39.0054 15.5119 39.8747 15.1359 40.1888 14.3441Z" fill="#7477BB"/>
<path d="M39.8752 21.3081C40.4555 20.7021 40.4555 19.7196 39.8752 19.1135C39.2948 18.5075 38.3539 18.5075 37.7735 19.1135C37.1931 19.7196 37.1931 20.7021 37.7735 21.3081C38.3539 21.9141 39.2948 21.9141 39.8752 21.3081Z" fill="#7477BB"/>
<path d="M26.3914 33.0154C27.2015 32.8781 27.7517 32.081 27.6202 31.235C27.4887 30.389 26.7254 29.8145 25.9152 29.9518C25.105 30.0891 24.5548 30.8862 24.6863 31.7322C24.8178 32.5782 25.5812 33.1527 26.3914 33.0154Z" fill="#7477BB"/>
<path d="M26.3904 39.4599C27.2006 39.3226 27.7507 38.5255 27.6193 37.6795C27.4878 36.8335 26.7244 36.259 25.9142 36.3963C25.104 36.5336 24.5539 37.3307 24.6853 38.1767C24.8168 39.0227 25.5802 39.5972 26.3904 39.4599Z" fill="#7477BB"/>
<path d="M39.0652 33.0161C39.8754 32.8788 40.4255 32.0817 40.2941 31.2357C40.1626 30.3897 39.3992 29.8152 38.589 29.9525C37.7788 30.0898 37.2287 30.8869 37.3601 31.7329C37.4916 32.5789 38.255 33.1534 39.0652 33.0161Z" fill="#7477BB"/>
<path d="M39.0642 39.4605C39.8744 39.3233 40.4246 38.5262 40.2931 37.6802C40.1616 36.8342 39.3982 36.2597 38.588 36.397C37.7779 36.5343 37.2277 37.3314 37.3592 38.1774C37.4907 39.0233 38.254 39.5978 39.0642 39.4605Z" fill="#7477BB"/>
<path d="M81.875 10.375H91.4738C98.3839 10.375 103.116 14.7267 103.116 21.4087C103.116 28.0907 98.3839 32.4424 91.4738 32.4424H81.875V10.375ZM91.2318 28.2591C95.4263 28.2591 98.1688 25.6481 98.1688 21.4087C98.1688 17.1974 95.4263 14.5583 91.2318 14.5583H86.7685V28.231H91.2318V28.2591Z" fill="#7477BB"/>
<path d="M122.314 25.3673H110.026C110.483 27.473 112.204 28.7645 114.678 28.7645C116.398 28.7645 117.635 28.231 118.765 27.1361L121.265 29.9717C119.759 31.7686 117.501 32.7231 114.57 32.7231C108.951 32.7231 105.294 29.0452 105.294 23.9916C105.294 18.91 109.004 15.2602 113.952 15.2602C118.711 15.2602 122.394 18.6011 122.394 24.0478C122.394 24.4128 122.341 24.9462 122.314 25.3673ZM109.945 22.4756H117.958C117.635 20.3418 116.076 18.938 113.979 18.938C111.828 18.9661 110.295 20.3137 109.945 22.4756Z" fill="#7477BB"/>
<path d="M161.543 15.4847V32.4423H157.08V30.4209C155.843 31.9089 154.041 32.695 152.025 32.695C147.938 32.695 145.088 30.3086 145.088 25.0585V15.4847H149.793V24.3566C149.793 27.1922 151.003 28.4556 153.073 28.4556C155.251 28.4556 156.811 26.9957 156.811 23.8793V15.4847H161.543Z" fill="#7477BB"/>
<path d="M125.541 9.05548V32.4424H130.246V28.6803V28.1187V22.3071V9.05548H125.541Z" fill="#7477BB"/>
<path d="M136 23.9074L142.749 15.4847H137.13L129.978 24.0478L137.64 32.4423H143.367L136 23.9074Z" fill="#7477BB"/>
</svg>
