<svg height="511pt" viewBox="0 -4 511.98989 511" width="511pt" xmlns="http://www.w3.org/2000/svg"><path d="m55.964844 498.074219c-2.847656-.003907-5.507813-1.425781-7.089844-3.796875s-1.875-5.375-.785156-8.003906l22.859375-55.1875c1.167969-2.816407 3.75-4.796876 6.773437-5.191407 3.023438-.398437 6.03125.847657 7.886719 3.265625 1.855469 2.421875 2.277344 5.644532 1.109375 8.464844l-22.867188 55.175781c-1.320312 3.191407-4.433593 5.273438-7.886718 5.273438zm0 0" fill="#7f5b53"/><path d="m397.273438 498.074219c-2.847657-.003907-5.507813-1.425781-7.089844-3.796875-1.582032-2.371094-1.878906-5.375-.785156-8.003906l22.859374-55.1875c1.804688-4.355469 6.796876-6.421876 11.152344-4.617188 4.355469 1.808594 6.421875 6.800781 4.617188 11.15625l-22.859375 55.183594c-1.324219 3.191406-4.441407 5.269531-7.894531 5.265625zm0 0" fill="#7f5b53"/><path d="m93.871094 205.296875h93.867187c4.710938 0 8.53125 3.820313 8.53125 8.53125v34.132813h-110.933593v-34.132813c0-4.710937 3.820312-8.53125 8.535156-8.53125zm0 0" fill="#24ae5f"/><path d="m187.738281 205.296875c0-34.136719-46.933593-34.136719-46.933593-34.136719s-46.933594 0-46.933594 34.136719zm0 0" fill="#f3d55b"/><path d="m238.9375 205.296875h93.867188c4.710937 0 8.53125 3.820313 8.53125 8.53125v34.132813h-110.933594v-34.132813c0-4.710937 3.824218-8.53125 8.535156-8.53125zm0 0" fill="#24ae5f"/><path d="m332.804688 205.296875c0-34.136719-46.933594-34.136719-46.933594-34.136719s-46.933594 0-46.933594 34.136719zm0 0" fill="#f3d55b"/><path d="m51.203125 256.496094c-4.710937 0-8.53125-3.820313-8.53125-8.535156v-153.597657c0-4.714843 3.820313-8.535156 8.53125-8.535156 4.714844 0 8.535156 3.820313 8.535156 8.535156v153.597657c0 4.714843-3.820312 8.535156-8.535156 8.535156zm0 0" fill="#7f5b53"/><path d="m460.804688 256.496094c-4.714844 0-8.535157-3.820313-8.535157-8.535156v-153.597657c0-4.714843 3.820313-8.535156 8.535157-8.535156 4.710937 0 8.53125 3.820313 8.53125 8.535156v153.597657c0 4.714843-3.820313 8.535156-8.53125 8.535156zm0 0" fill="#7f5b53"/><path d="m51.203125 410.09375h409.601563c9.425781 0 17.066406-7.640625 17.066406-17.066406v-128c-.027344-9.414063-7.652344-17.039063-17.066406-17.066406h-409.601563c-9.414063.027343-17.039063 7.652343-17.066406 17.066406v128c0 9.425781 7.640625 17.066406 17.066406 17.066406zm0 0" fill="#cb9080"/><g fill="#7f5b53"><path d="m114.734375 498.117188c-3.453125 0-6.566406-2.082032-7.882813-5.273438l-22.871093-55.1875c-1.804688-4.351562.261719-9.347656 4.617187-11.152344 4.355469-1.804687 9.347656.261719 11.152344 4.617188l22.859375 55.183594c1.09375 2.632812.796875 5.636718-.78125 8.007812-1.582031 2.367188-4.242187 3.792969-7.09375 3.796875zm0 0"/><path d="m78.808594 411.402344c-3.453125-.003906-6.566406-2.085938-7.882813-5.277344l-22.863281-55.183594c-1.808594-4.351562.253906-9.347656 4.605469-11.15625 4.351562-1.808594 9.347656.25 11.15625 4.601563l22.863281 55.1875c1.089844 2.632812.796875 5.632812-.785156 8.003906-1.582032 2.371094-4.242188 3.792969-7.09375 3.796875zm0 0"/><path d="m101.105469 420.632812c-4.070313.003907-7.578125-2.871093-8.371094-6.867187-.796875-3.992187 1.339844-7.992187 5.105469-9.550781l55.183594-22.859375c4.355468-1.804688 9.347656.261719 11.152343 4.617187 1.804688 4.351563-.261719 9.347656-4.617187 11.152344l-55.191406 22.859375c-1.035157.429687-2.140626.648437-3.261719.648437zm0 0"/><path d="m14.390625 456.558594c-4.078125.015625-7.59375-2.855469-8.398437-6.855469-.800782-3.996094 1.335937-8.003906 5.105468-9.5625l55.210938-22.871094c4.355468-1.804687 9.347656.265625 11.152344 4.617188 1.804687 4.355469-.261719 9.347656-4.617188 11.15625l-55.191406 22.859375c-1.035156.429687-2.140625.652344-3.261719.65625zm0 0"/><path d="m156.242188 456.535156c-1.121094-.003906-2.226563-.226562-3.261719-.660156l-55.183594-22.859375c-2.816406-1.167969-4.796875-3.75-5.195313-6.773437-.398437-3.023438.847657-6.027344 3.269532-7.882813 2.417968-1.855469 5.644531-2.28125 8.460937-1.113281l55.1875 22.859375c3.761719 1.558593 5.898438 5.558593 5.105469 9.550781-.796875 3.996094-4.304688 6.871094-8.375 6.867188zm0 0"/><path d="m69.609375 420.652344c-1.117187-.003906-2.226563-.226563-3.257813-.660156l-55.1875-22.851563c-4.351562-1.804687-6.417968-6.796875-4.613281-11.152344 1.804688-4.355469 6.796875-6.421875 11.152344-4.617187l55.183594 22.863281c3.765625 1.554687 5.902343 5.554687 5.105469 9.550781-.792969 3.992188-4.300782 6.867188-8.371094 6.867188zm0 0"/><path d="m91.847656 411.441406c-2.847656 0-5.507812-1.425781-7.089844-3.792968-1.582031-2.371094-1.875-5.375-.785156-8.007813l22.859375-55.183594c1.167969-2.816406 3.75-4.796875 6.773438-5.195312 3.023437-.398438 6.03125.847656 7.886719 3.269531 1.855468 2.417969 2.277343 5.644531 1.109374 8.460938l-22.859374 55.1875c-1.324219 3.1875-4.4375 5.269531-7.894532 5.261718zm0 0"/><path d="m456.042969 498.117188c-3.453125 0-6.566407-2.082032-7.886719-5.273438l-22.859375-55.1875c-1.167969-2.816406-.742187-6.042969 1.113281-8.460938 1.855469-2.421874 4.859375-3.664062 7.882813-3.269531 3.023437.398438 5.605469 2.378907 6.773437 5.195313l22.859375 55.183594c1.09375 2.632812.796875 5.636718-.78125 8.007812-1.582031 2.367188-4.242187 3.792969-7.09375 3.796875zm0 0"/><path d="m420.125 411.402344c-3.453125-.003906-6.566406-2.085938-7.882812-5.277344l-22.863282-55.183594c-1.804687-4.355468.261719-9.347656 4.617188-11.152344 4.355468-1.804687 9.347656.261719 11.152344 4.617188l22.863281 55.183594c1.089843 2.632812.796875 5.636718-.785157 8.003906-1.582031 2.371094-4.242187 3.796875-7.09375 3.796875zm0 0"/><path d="m442.421875 420.632812c-4.070313.003907-7.578125-2.871093-8.371094-6.867187-.796875-3.992187 1.339844-7.992187 5.105469-9.550781l55.183594-22.859375c2.816406-1.167969 6.042968-.746094 8.464844 1.109375 2.417968 1.859375 3.664062 4.863281 3.265624 7.886718-.398437 3.023438-2.375 5.605469-5.195312 6.773438l-55.183594 22.859375c-1.035156.429687-2.148437.648437-3.269531.648437zm0 0"/><path d="m355.699219 456.558594c-4.074219.003906-7.578125-2.871094-8.375-6.867188-.792969-3.992187 1.34375-7.992187 5.105469-9.550781l55.1875-22.859375c4.351562-1.804688 9.347656.261719 11.152343 4.617188 1.804688 4.351562-.261719 9.347656-4.617187 11.152343l-55.183594 22.859375c-1.039062.429688-2.148438.648438-3.269531.648438zm0 0"/><path d="m497.558594 456.535156c-1.121094-.003906-2.226563-.226562-3.261719-.660156l-55.191406-22.859375c-4.355469-1.804687-6.421875-6.796875-4.617188-11.152344 1.804688-4.355469 6.796875-6.421875 11.152344-4.617187l55.195313 22.859375c3.761718 1.558593 5.898437 5.558593 5.105468 9.550781-.796875 3.996094-4.304687 6.871094-8.375 6.867188zm0 0"/><path d="m410.925781 420.652344c-1.117187-.003906-2.226562-.226563-3.257812-.660156l-55.1875-22.859376c-2.816407-1.167968-4.796875-3.75-5.191407-6.773437-.398437-3.023437.847657-6.027344 3.265626-7.882813 2.421874-1.855468 5.648437-2.28125 8.464843-1.113281l55.183594 22.859375c3.761719 1.558594 5.902344 5.558594 5.105469 9.550782-.792969 3.996093-4.300782 6.871093-8.375 6.867187zm0 0"/><path d="m433.15625 411.441406c-2.847656 0-5.507812-1.425781-7.089844-3.792968-1.582031-2.371094-1.878906-5.375-.785156-8.007813l22.859375-55.183594c1.167969-2.816406 3.75-4.796875 6.773437-5.195312 3.023438-.398438 6.027344.847656 7.882813 3.269531 1.855469 2.417969 2.28125 5.644531 1.113281 8.460938l-22.859375 55.1875c-1.324219 3.1875-4.441406 5.269531-7.894531 5.261718zm0 0"/></g><path d="m457.304688 5.53125c-3.210938-3.222656-7.570313-5.035156-12.117188-5.035156h-378.367188c-4.546874 0-8.90625 1.8125-12.117187 5.035156l-37.632813 37.628906h477.867188zm0 0" fill="#cc4b4c"/><path d="m119.472656.496094-34.136718 42.664062h-68.265626l37.632813-37.628906c3.210937-3.222656 7.570313-5.035156 12.117187-5.035156zm0 0" fill="#cc4b4c"/><path d="m179.203125.496094-25.597656 42.664062h-68.269531l34.136718-42.664062zm0 0" fill="#ecf0f1"/><path d="m238.9375.496094-17.066406 42.664062h-68.265625l25.597656-42.664062zm0 0" fill="#cc4b4c"/><path d="m290.136719 43.160156h-68.265625l17.066406-42.664062h34.132812zm0 0" fill="#ecf0f1"/><path d="m358.402344 43.160156h-68.265625l-17.066407-42.664062h59.734376zm0 0" fill="#cc4b4c"/><path d="m426.671875 43.160156h-68.269531l-25.597656-42.664062h59.734374zm0 0" fill="#ecf0f1"/><path d="m494.9375 43.160156h-68.265625l-34.132813-42.664062h52.648438c4.546875 0 8.90625 1.8125 12.117188 5.035156zm0 0" fill="#cc4b4c"/><path d="m17.070312 43.160156h68.265626v17.066406c0 18.851563-15.28125 34.136719-34.132813 34.136719s-34.132813-15.285156-34.132813-34.136719zm0 0" fill="#802f34"/><path d="m85.335938 43.160156h68.269531v17.066406c0 18.851563-15.285157 34.136719-34.132813 34.136719-18.851562 0-34.136718-15.285156-34.136718-34.136719zm0 0" fill="#bdc3c7"/><path d="m153.605469 43.160156h68.265625v17.066406c0 18.851563-15.28125 34.136719-34.132813 34.136719-18.851562 0-34.132812-15.285156-34.132812-34.136719zm0 0" fill="#802f34"/><path d="m290.136719 43.160156h68.265625v17.066406c0 18.851563-15.28125 34.136719-34.132813 34.136719-18.851562 0-34.132812-15.285156-34.132812-34.136719zm0 0" fill="#802f34"/><path d="m358.402344 43.160156h68.269531v17.066406c0 18.851563-15.28125 34.136719-34.132813 34.136719-18.851562 0-34.136718-15.285156-34.136718-34.136719zm0 0" fill="#bdc3c7"/><path d="m426.671875 43.160156h68.265625v17.066406c0 18.851563-15.28125 34.136719-34.132812 34.136719-18.851563 0-34.132813-15.285156-34.132813-34.136719zm0 0" fill="#802f34"/><path d="m221.871094 43.160156h68.265625v17.066406c0 18.851563-15.28125 34.136719-34.132813 34.136719-18.851562 0-34.132812-15.285156-34.132812-34.136719zm0 0" fill="#bdc3c7"/><path d="m401.070312 128.496094c9.398438.070312 16.996094 7.667968 17.066407 17.066406v2.472656c-.195313 6.28125 1.371093 12.488282 4.523437 17.921875 2.636719 4.09375 4.03125 8.867188 4.011719 13.738281v68.265626h-51.203125l.003906-68.265626c-.023437-4.871093 1.371094-9.644531 4.007813-13.738281 3.15625-5.433593 4.722656-11.640625 4.523437-17.921875v-2.472656c.070313-9.398438 7.671875-16.996094 17.066406-17.066406zm0 0" fill="#802f34"/><path d="m375.472656 179.695312h51.199219v34.132813h-51.199219zm0 0" fill="#cc4b4c"/><path d="m184.324219 346.804688-91.304688-35.96875c-2.484375-.980469-4.367187-3.058594-5.101562-5.621094-.734375-2.566406-.234375-5.324219 1.351562-7.46875 13.511719-18.152344 41.3125-24.746094 67.339844-14.507813 26.023437 10.238281 41.726563 33.851563 39.371094 56.261719-.242188 2.6875-1.726563 5.109375-4.015625 6.542969-2.289063 1.433593-5.113282 1.714843-7.640625.761719zm0 0" fill="#f3d55b"/><path d="m230.402344 324.761719c-4.710938 0-8.53125-3.820313-8.53125-8.535157v-42.664062c0-4.714844 3.820312-8.535156 8.53125-8.535156 4.714844 0 8.535156 3.820312 8.535156 8.535156v42.664062c0 4.714844-3.820312 8.535157-8.535156 8.535157zm0 0" fill="#59474e"/><path d="m247.472656 282.09375h-34.136718c-4.710938 0-8.53125-3.820312-8.53125-8.53125 0-4.714844 3.820312-8.535156 8.53125-8.535156h34.136718c4.710938 0 8.53125 3.820312 8.53125 8.535156 0 4.710938-3.820312 8.53125-8.53125 8.53125zm0 0" fill="#59474e"/><path d="m396.804688 324.761719c-16.496094 0-29.867188-13.371094-29.867188-29.867188 0-16.496093 13.371094-29.867187 29.867188-29.867187 16.496093 0 29.867187 13.371094 29.867187 29.867187 0 16.496094-13.371094 29.867188-29.867187 29.867188zm0-42.667969c-7.070313 0-12.800782 5.730469-12.800782 12.800781 0 7.070313 5.730469 12.800781 12.800782 12.800781 7.070312 0 12.800781-5.730468 12.800781-12.800781 0-7.070312-5.730469-12.800781-12.800781-12.800781zm0 0" fill="#59474e"/><path d="m343.300781 324.761719c-13.511719-.015625-25.328125-9.101563-28.816406-22.152344-3.492187-13.050781 2.214844-26.820313 13.914063-33.578125 11.699218-6.757812 26.476562-4.816406 36.039062 4.726562 3.234375 3.347657 3.1875 8.671876-.105469 11.960938-3.289062 3.292969-8.613281 3.339844-11.960937.105469-5.003906-4.984375-13.097656-4.972657-18.089844.027343-4.988281 4.996094-4.988281 13.089844 0 18.085938 4.992188 5 13.085938 5.011719 18.089844.027344 3.347656-3.234375 8.671875-3.1875 11.960937.105468 3.292969 3.292969 3.339844 8.613282.105469 11.960938-5.597656 5.617188-13.207031 8.761719-21.136719 8.730469zm0 0" fill="#59474e"/><path d="m298.671875 324.761719c-4.714844 0-8.535156-3.820313-8.535156-8.535157v-25.597656c0-4.714844-3.820313-8.535156-8.53125-8.535156-4.714844 0-8.535157 3.820312-8.535157 8.535156v25.597656c0 4.714844-3.820312 8.535157-8.53125 8.535157-4.714843 0-8.535156-3.820313-8.535156-8.535157v-25.597656c0-14.140625 11.460938-25.601562 25.601563-25.601562 14.136719 0 25.597656 11.460937 25.597656 25.601562v25.597656c0 4.714844-3.820313 8.535157-8.53125 8.535157zm0 0" fill="#59474e"/><path d="m298.671875 307.695312h-34.132813c-4.714843 0-8.535156-3.820312-8.535156-8.535156 0-4.710937 3.820313-8.53125 8.535156-8.53125h34.132813c4.710937 0 8.53125 3.820313 8.53125 8.53125 0 4.714844-3.820313 8.535156-8.53125 8.535156zm0 0" fill="#59474e"/><path d="m426.765625 503.960938c-42.835937.054687-79.074219-31.65625-84.703125-74.121094s21.101562-82.523438 62.472656-93.628906c41.371094-11.105469 84.566406 10.183593 100.957032 49.761718 10.902343 26.3125 7.953124 56.328125-7.851563 80.019532-15.808594 23.691406-42.394531 37.933593-70.875 37.96875zm-.09375-153.597657c-30.066406-.007812-56.601563 19.65625-65.335937 48.425781-8.738282 28.769532 2.375 59.871094 27.367187 76.585938s57.980469 15.109375 81.234375-3.953125c23.25-19.0625 31.292969-51.09375 19.804688-78.878906-10.589844-25.496094-35.464844-42.132813-63.070313-42.179688zm0 0" fill="#59474e"/><path d="m85.449219 503.960938c-42.835938.054687-79.074219-31.65625-84.703125-74.121094s21.101562-82.523438 62.472656-93.628906c41.371094-11.105469 84.566406 10.183593 100.957031 49.761718 10.902344 26.3125 7.953125 56.328125-7.851562 80.019532-15.808594 23.691406-42.394531 37.933593-70.875 37.96875zm-.207031-153.597657c-30.0625.03125-56.5625 19.730469-65.265626 48.503907-8.699218 28.777343 2.445313 59.859374 27.453126 76.546874 25.007812 16.6875 57.984374 15.050782 81.21875-4.03125 23.230468-19.078124 31.25-51.109374 19.742187-78.882812-10.488281-25.605469-35.476563-42.28125-63.148437-42.136719zm0 0" fill="#59474e"/><path d="m85.335938 444.226562c-12.84375.003907-23.703126-9.515624-25.382813-22.253906-1.675781-12.734375 6.34375-24.742187 18.75-28.070312s25.359375 3.054687 30.28125 14.921875c3.273437 7.898437 2.390625 16.910156-2.359375 24.023437-4.75 7.109375-12.734375 11.378906-21.289062 11.378906zm0-34.132812c-3.757813 0-7.074219 2.457031-8.164063 6.054688-1.09375 3.597656.296875 7.484374 3.421875 9.574218 3.121094 2.089844 7.246094 1.886719 10.152344-.496094 2.90625-2.382812 3.910156-6.386718 2.476562-9.859374-1.320312-3.191407-4.433594-5.273438-7.886718-5.273438zm0 0" fill="#59474e"/><path d="m426.671875 444.226562c-12.847656.003907-23.703125-9.515624-25.382813-22.253906-1.679687-12.734375 6.339844-24.742187 18.746094-28.070312 12.410156-3.328125 25.363282 3.054687 30.28125 14.921875 3.277344 7.898437 2.390625 16.910156-2.359375 24.023437-4.75 7.109375-12.734375 11.378906-21.285156 11.378906zm0-34.132812c-3.757813 0-7.074219 2.457031-8.167969 6.054688-1.089844 3.597656.296875 7.484374 3.421875 9.574218s7.246094 1.886719 10.152344-.496094c2.90625-2.382812 3.914063-6.386718 2.476563-9.859374-1.316407-3.191407-4.429688-5.273438-7.882813-5.273438zm0 0" fill="#59474e"/></svg>