<svg width="170" height="170" viewBox="0 0 170 170" fill="none" xmlns="http://www.w3.org/2000/svg">
<path d="M142 77.7896C143.105 77.7896 144 78.685 144 79.7896V112.822C144 113.927 143.105 114.822 142 114.822H116.089C114.984 114.822 114.089 113.927 114.089 112.822V79.7895C114.089 78.685 114.984 77.7896 116.089 77.7896H142Z" fill="url(#paint0_linear)"/>
<path d="M121.401 55C122.506 55 123.401 55.8954 123.401 57V82.911C123.401 84.0156 122.506 84.911 121.401 84.911H86.1781C85.0735 84.911 84.1781 84.0156 84.1781 82.911V57C84.1781 55.8954 85.0735 55 86.1781 55L121.401 55Z" fill="url(#paint1_linear)"/>
<path d="M52.9111 56.0537C54.0157 56.0537 54.9111 56.9491 54.9111 58.0537L54.9111 101.76H25.0001L25.0001 58.0537C25.0001 56.9491 25.8956 56.0537 27.0001 56.0537L52.9111 56.0537Z" fill="#FC683A"/>
<path d="M82.8218 85.9111C83.9263 85.9111 84.8218 86.8066 84.8218 87.9111V113.822C84.8218 114.927 83.9263 115.822 82.8218 115.822H48.4999L48.4999 85.9111H82.8218Z" fill="#FC683A"/>
<path d="M54.9111 85.9111L54.9111 115.822H27.0001C25.8956 115.822 25.0001 114.927 25.0001 113.822L25.0001 85.9111H54.9111Z" fill="#FFB097"/>
<path d="M142 55C143.105 55 144 55.8954 144 57V84.911H114.089V55L142 55Z" fill="#BDDCF9"/>
<defs>
<linearGradient id="paint0_linear" x1="114.51" y1="118.51" x2="143.51" y2="85.0104" gradientUnits="userSpaceOnUse">
<stop stop-color="#3AA0FF"/>
<stop offset="1" stop-color="#0072DC"/>
</linearGradient>
<linearGradient id="paint1_linear" x1="84.5102" y1="84.5105" x2="114.51" y2="54.5105" gradientUnits="userSpaceOnUse">
<stop stop-color="#3AA0FF"/>
<stop offset="1" stop-color="#0072DC"/>
</linearGradient>
</defs>
</svg>
