<svg width="298" height="93" viewBox="0 0 298 93" fill="none" xmlns="http://www.w3.org/2000/svg">
<path d="M197 0.0458624C195.572 1.53639 194.326 2.91226 193.011 4.24227C189.635 7.63609 186.236 11.007 182.904 14.4467C182.179 15.1805 181.477 15.5015 180.434 15.5015C170.757 15.4556 161.104 15.6391 151.427 15.4327C144.356 15.2493 138.374 17.7029 133.116 22.2891C127.972 26.7836 124.187 32.2413 122.578 39.006C121.377 44.0738 122.057 49.1186 123.371 54.0718C125.116 60.6072 128.244 66.3171 133.524 70.6052C139.507 75.4666 146.464 76.9113 153.92 76.5444C157.863 76.3609 161.738 75.8335 165.432 74.3659C165.772 74.2283 166.134 74.0678 166.474 73.9302C169.307 72.8524 170.757 71.2243 170.576 67.7388C170.214 61.1117 170.463 54.4387 170.463 47.7886C170.463 47.33 170.463 46.8943 170.463 46.344C175.086 46.344 179.596 46.344 184.241 46.344C184.264 46.7109 184.287 47.1236 184.287 47.5135C184.287 57.5344 184.309 67.5324 184.264 77.5533C184.264 78.1266 184.015 78.8375 183.629 79.2732C177.873 85.6939 170.758 89.7986 162.35 91.1745C151.268 92.986 140.345 92.0459 130.261 86.7488C117.91 80.2592 109.593 70.2153 106.715 56.2044C104.131 43.7298 105.695 31.7826 113.083 21.1884C120.425 10.663 130.374 3.76072 142.906 0.894317C145.24 0.366899 147.552 0.0458624 149.954 0.0458624C165.296 0.0687936 180.615 0.0229312 195.958 0C196.275 0.0458624 196.547 0.0458624 197 0.0458624Z" fill="white"/>
<path d="M75.2829 91.7477C75.2829 61.0658 75.2829 30.659 75.2829 0.137573C80.7897 0.137573 86.2512 0.137573 91.8487 0.137573C91.8714 0.481541 91.9167 0.894303 91.9167 1.28413C91.9167 25.4766 91.9167 49.669 91.9394 73.8614C91.9394 74.6411 91.7354 75.2143 91.1689 75.7647C86.1379 80.8325 81.107 85.9003 76.0987 90.991C75.8947 91.2203 75.6681 91.4038 75.2829 91.7477Z" fill="white"/>
<path d="M0.182086 0.0916748C5.349 0.0916748 10.4026 0.0916748 15.5695 0.0916748C15.5922 0.527368 15.6375 0.940129 15.6375 1.35289C15.6375 23.0917 15.6375 44.8534 15.6149 66.5922C15.6149 67.1425 15.4109 67.8305 15.0483 68.1973C10.2666 73.1046 5.43965 77.966 0.635324 82.8275C0.522014 82.9421 0.363381 83.0568 0.159424 83.2173C0.182086 55.4247 0.182086 27.7467 0.182086 0.0916748Z" fill="white"/>
<path d="M0 91.4267C0.362591 91.2432 0.815829 91.1286 1.11043 90.8534C6.11872 85.8315 11.1043 80.7637 16.1126 75.7418C16.4979 75.3519 17.1324 75.0309 17.631 75.0309C32.1346 75.008 46.6156 75.0309 61.1192 75.0309C61.3911 75.0309 61.6404 75.0538 62.0257 75.0767C62.0257 80.672 62.0257 86.2213 62.0257 91.8853C41.5166 91.8853 20.9396 91.8853 0.385253 91.8853C0.249281 91.7477 0.135971 91.5872 0 91.4267Z" fill="white"/>
<mask id="mask0" mask-type="alpha" maskUnits="userSpaceOnUse" x="210" y="0" width="88" height="88">
<circle cx="254" cy="44" r="44" fill="#C4C4C4"/>
</mask>
<g mask="url(#mask0)">
<path d="M209.984 0.000213623H253.985C278.285 0.000213623 297.985 19.6997 297.985 44.0002V88.0004H209.984V0.000213623Z" fill="white" fill-opacity="0.25"/>
<mask id="mask1" mask-type="alpha" maskUnits="userSpaceOnUse" x="209" y="0" width="89" height="89">
<path d="M209.984 0.000213623H253.985C278.285 0.000213623 297.985 19.6997 297.985 44.0002V88.0004H209.984V0.000213623Z" fill="#C4C4C4"/>
</mask>
<g mask="url(#mask1)">
<rect x="162.401" y="135.525" width="218.483" height="96.9736" transform="rotate(-45 162.401 135.525)" fill="white" fill-opacity="0.25"/>
</g>
<path d="M240.92 57.0652V0.000213623H209.984V57.0652V88.0004H240.92H297.985V57.0652H240.92Z" fill="white" fill-opacity="0.7"/>
<mask id="mask2" mask-type="alpha" maskUnits="userSpaceOnUse" x="209" y="0" width="89" height="89">
<path d="M240.92 57.0652V0.000213623H209.984V57.0652V88.0004H240.92H297.985V57.0652H240.92Z" fill="black"/>
</mask>
<g mask="url(#mask2)">
<rect x="172.059" y="125.664" width="218.483" height="96.9736" transform="rotate(-45 172.059 125.664)" fill="white"/>
</g>
<mask id="mask3" mask-type="alpha" maskUnits="userSpaceOnUse" x="253" y="0" width="45" height="45">
<path d="M253.983 0C278.284 0 297.983 19.6995 297.983 44.0001H253.983V0Z" fill="#AAA4A4"/>
</mask>
<g mask="url(#mask3)">
<rect x="271.376" y="-21.9596" width="48.5519" height="48.5519" fill="white"/>
</g>
</g>
</svg>
