<svg width="170" height="170" viewBox="0 0 170 170" fill="none" xmlns="http://www.w3.org/2000/svg">
<path d="M35 46C35 44.8954 35.8954 44 37 44H132.493C133.597 44 134.493 44.8954 134.493 46V120C134.493 121.105 133.597 122 132.493 122H37C35.8954 122 35 121.105 35 120V46Z" fill="url(#paint0_linear)"/>
<path d="M116.234 94.5L108.772 102L101.31 94.5L93.8478 102L86.3858 94.5L78.9239 102L71.4619 94.5L64 102" stroke="white" stroke-width="5" stroke-linejoin="round"/>
<path d="M35 46C35 44.8954 35.8954 44 37 44H132.493C133.597 44 134.493 44.8954 134.493 46V63H35V46Z" fill="url(#paint1_linear)" fill-opacity="0.45"/>
<path fill-rule="evenodd" clip-rule="evenodd" d="M162.791 66.3737L155.281 55.9843L113.934 86.1776L121.444 96.5669L162.791 66.3737ZM109.936 97.0332L113.933 86.1772L121.443 96.5666L109.936 97.0332Z" fill="#0D0F33"/>
<mask id="mask0" mask-type="alpha" maskUnits="userSpaceOnUse" x="109" y="55" width="54" height="43">
<mask id="path-5-inside-1" mask-type="luminance" fill="white">
<path fill-rule="evenodd" clip-rule="evenodd" d="M162.791 66.3739L155.281 55.9846L113.934 86.1778L121.444 96.5672L162.791 66.3739ZM109.936 97.0334L113.933 86.1775L121.443 96.5668L109.936 97.0334Z"/>
</mask>
<path d="M155.281 55.9846L197.219 25.359L166.716 -16.8401L124.777 13.7855L155.281 55.9846ZM162.791 66.3739L193.295 108.573L235.233 77.9474L204.729 35.7483L162.791 66.3739ZM113.934 86.1778L83.4304 43.9788L41.4918 74.6043L71.9957 116.803L113.934 86.1778ZM121.444 96.5672L79.5057 127.193L110.009 169.392L151.948 138.766L121.444 96.5672ZM113.933 86.1775L155.872 55.5519L98.9098 -23.2495L65.2984 68.0288L113.933 86.1775ZM109.936 97.0334L61.3009 78.8847L34.2721 152.287L112.08 149.132L109.936 97.0334ZM121.443 96.5668L123.587 148.666L220.344 144.743L163.382 65.9413L121.443 96.5668ZM113.342 86.6101L120.852 96.9995L204.729 35.7483L197.219 25.359L113.342 86.6101ZM144.438 128.377L185.785 98.1836L124.777 13.7855L83.4304 43.9788L144.438 128.377ZM163.383 65.9416L155.873 55.5522L71.9957 116.803L79.5057 127.193L163.383 65.9416ZM132.287 24.1749L90.9404 54.3681L151.948 138.766L193.295 108.573L132.287 24.1749ZM65.2984 68.0288L61.3009 78.8847L158.571 115.182L162.568 104.326L65.2984 68.0288ZM163.382 65.9413L155.872 55.5519L71.9947 116.803L79.5047 127.192L163.382 65.9413ZM112.08 149.132L123.587 148.666L119.299 44.4681L107.792 44.9347L112.08 149.132Z" fill="#FC683A" mask="url(#path-5-inside-1)"/>
</mask>
<g mask="url(#mask0)">
<rect width="51.8377" height="35.1415" transform="matrix(0.593657 0.806374 -0.801338 0.595984 163.06 30.3345)" fill="#FC683A"/>
</g>
<defs>
<linearGradient id="paint0_linear" x1="134.493" y1="90" x2="35" y2="90" gradientUnits="userSpaceOnUse">
<stop stop-color="#3AA0FF"/>
<stop offset="1" stop-color="#0072DC"/>
</linearGradient>
<linearGradient id="paint1_linear" x1="35" y1="53.5" x2="134.493" y2="53.5" gradientUnits="userSpaceOnUse">
<stop stop-color="#BFDCF6"/>
<stop offset="1" stop-color="#CEE7FF"/>
</linearGradient>
</defs>
</svg>
