<svg xmlns="http://www.w3.org/2000/svg" width="50" height="50" viewBox="0 0 50 50">
  <defs>
    <linearGradient id="telegram-a" x1="66.7%" x2="41.7%" y1="16.7%" y2="75%">
      <stop offset="0%" stop-color="#37AEE2"/>
      <stop offset="100%" stop-color="#1E96C8"/>
    </linearGradient>
    <linearGradient id="telegram-b" x1="66%" x2="85.1%" y1="43.065%" y2="83.244%">
      <stop offset="0%" stop-color="#EFF7FC"/>
      <stop offset="100%" stop-color="#FFF"/>
    </linearGradient>
  </defs>
  <g fill="none" transform="translate(1 1)">
    <circle cx="23.5" cy="23.5" r="23.5" fill="url(#telegram-a)"/>
    <path fill="#C8DAEA" d="M19.2727273,35 C18.4774545,35 18.6126591,34.7064 18.3383636,33.966 L16,26.4414 L34,16"/>
    <path fill="#A9C9DD" d="M19,35 C19.6818182,35 19.9829545,34.7309188 20.3636364,34.4116301 L24,31.3603439 L19.4640909,29"/>
    <path fill="url(#telegram-b)" d="M19.7939067,28.5186178 L29.058792,35.7003368 C30.1161307,36.312398 30.8790086,35.9954126 31.1424333,34.6705866 L34.9137167,16.0247303 C35.2997536,14.4006073 34.3236454,13.6637218 33.3120947,14.1455316 L11.1671796,23.1045396 C9.65560092,23.7407214 9.66460526,24.6255468 10.8916853,25.0197183 L16.5745698,26.8808265 L29.7310517,18.1722711 C30.3521592,17.7770947 30.922306,17.9893563 30.4544638,18.4251358"/>
  </g>
</svg>
