<svg xmlns="http://www.w3.org/2000/svg" xmlns:xlink="http://www.w3.org/1999/xlink" width="87" height="53" viewBox="0 0 87 53">
  <defs>
    <polygon id="logo-a" points=".351 .415 52.636 .415 52.636 52.729 .351 52.729" />
  </defs>
  <g fill="none" fill-rule="evenodd">
    <path fill="white" d="M59.516954,1.00802118 C45.2851511,1.00802118 33.7452679,12.5525859 33.7452679,26.7895271 C33.7452679,41.0328212 45.2851511,52.5767506 59.516954,52.5767506 C59.8395526,52.5767506 60.1621511,52.5716682 60.4796693,52.5557859 L60.4796693,43.7677624 C60.1621511,43.7836447 59.8395526,43.7944447 59.516954,43.7944447 C50.1298445,43.7944447 42.5189321,36.1804447 42.5189321,26.7895271 C42.5189321,17.4043271 50.1298445,9.79032706 59.516954,9.79032706 C68.4919248,9.79032706 75.8424723,16.7531506 76.4717934,25.5678565 L85.2670489,25.5678565 C84.6269321,11.8963271 73.3461438,1.00802118 59.516954,1.00802118" />
    <g transform="translate(33.022 .22)">
      <mask id="logo-b" fill="#fff">
        <use xlink:href="#logo-a" />
      </mask>
      <path fill="white" d="M26.4950562,1.16055529 C12.4893263,1.16055529 1.09677153,12.5590024 1.09677153,26.5697788 C1.09677153,40.5830965 12.4893263,51.9834494 26.4950562,51.9834494 C26.6919175,51.9834494 26.8887788,51.9821788 27.0843701,51.9764612 L27.0843701,43.9361788 C26.8887788,43.9431671 26.6919175,43.9469788 26.4950562,43.9469788 C16.9168007,43.9469788 9.12426788,36.1512847 9.12426788,26.5697788 C9.12426788,16.9908141 16.9168007,9.19702588 26.4950562,9.19702588 C35.4490708,9.19702588 42.9812387,16.1001318 43.7934504,24.9745553 L51.8520635,24.9745553 C51.0233409,11.5889082 39.959735,1.16055529 26.4950562,1.16055529 M26.4950562,52.7292847 C12.0797277,52.7292847 0.351238686,40.9941318 0.351238686,26.5697788 C0.351238686,12.1479671 12.0797277,0.41472 26.4950562,0.41472 C40.4887204,0.41472 51.9625599,11.3589318 52.6172825,25.3296847 L52.6363336,25.7203906 L43.1025307,25.7203906 L43.0777642,25.37352 C42.4611438,16.7208141 35.1766401,9.94286118 26.4950562,9.94286118 C17.3276693,9.94286118 9.86980073,17.4012141 9.86980073,26.5697788 C9.86980073,35.7408847 17.3276693,43.2011435 26.4950562,43.2011435 C26.8113044,43.2011435 27.1281876,43.1903435 27.4387204,43.1750965 L27.8299029,43.1560376 L27.8299029,52.6898965 L27.4761876,52.70832 C27.152954,52.7242024 26.8240051,52.7292847 26.4950562,52.7292847" mask="url(#logo-b)" />
    </g>
    <polyline fill="white" points="0 .702 59.77 .702 59.77 9.247 25.926 9.247 25.926 52.348 16.634 52.348 16.634 9.247 0 9.247" />
    <polygon fill="white" points="73.762 34.836 69.072 40.756 81.951 51.427 86.647 45.633" />
  </g>
</svg>